<svg width="181" height="50" viewBox="0 0 181 50" fill="none" xmlns="http://www.w3.org/2000/svg">
<path d="M40 39.9401C41.3261 39.9401 42.5979 40.4661 43.5355 41.4024C44.4732 42.3386 45 43.6085 45 44.9326C45 46.2567 44.4732 47.5266 43.5355 48.4628C42.5979 49.3991 41.3261 49.9251 40 49.9251C38.6739 49.9251 37.4021 49.3991 36.4645 48.4628C35.5268 47.5266 35 46.2567 35 44.9326C35 42.1618 37.225 39.9401 40 39.9401ZM0 0H8.175L10.525 4.99251H47.5C48.163 4.99251 48.7989 5.25551 49.2678 5.72365C49.7366 6.19179 50 6.82672 50 7.48877C50 7.91313 49.875 8.33749 49.7 8.73689L40.75 24.8877C39.9 26.4104 38.25 27.4588 36.375 27.4588H17.75L15.5 31.5277L15.425 31.8273C15.425 31.9928 15.4908 32.1515 15.6081 32.2685C15.7253 32.3856 15.8842 32.4513 16.05 32.4513H45V37.4438H15C13.6739 37.4438 12.4021 36.9178 11.4645 35.9816C10.5268 35.0453 10 33.7754 10 32.4513C10 31.5776 10.225 30.7539 10.6 30.0549L14 23.9391L5 4.99251H0V0ZM15 39.9401C16.3261 39.9401 17.5979 40.4661 18.5355 41.4024C19.4732 42.3386 20 43.6085 20 44.9326C20 46.2567 19.4732 47.5266 18.5355 48.4628C17.5979 49.3991 16.3261 49.9251 15 49.9251C13.6739 49.9251 12.4021 49.3991 11.4645 48.4628C10.5268 47.5266 10 46.2567 10 44.9326C10 42.1618 12.225 39.9401 15 39.9401ZM37.5 22.4663L44.45 9.98502H12.85L18.75 22.4663H37.5Z" fill="black"/>
<path d="M78.9531 28.75C78.875 29.5781 78.6797 30.332 78.3672 31.0117C78.0547 31.6836 77.6445 32.2578 77.1367 32.7344C76.6211 33.2188 76.0078 33.5938 75.2969 33.8594C74.5938 34.1172 73.8125 34.2461 72.9531 34.2461C72.25 34.2461 71.6016 34.1523 71.0078 33.9648C70.4219 33.7695 69.8984 33.4961 69.4375 33.1445C68.9922 32.8164 68.6016 32.4219 68.2656 31.9609C67.9375 31.4922 67.6602 30.9805 67.4336 30.4258C67.207 29.8789 67.0352 29.2852 66.918 28.6445C66.8086 28.0039 66.7539 27.3359 66.7539 26.6406V24.3086C66.7539 23.6445 66.8086 23.0039 66.918 22.3867C67.0273 21.7695 67.1914 21.1875 67.4102 20.6406C67.6445 20.0312 67.9453 19.4805 68.3125 18.9883C68.6875 18.4883 69.1172 18.0625 69.6016 17.7109C70.0625 17.3906 70.5703 17.1406 71.125 16.9609C71.6875 16.7812 72.3008 16.6914 72.9648 16.6914C73.8633 16.6914 74.6641 16.8242 75.3672 17.0898C76.0781 17.3555 76.6836 17.7305 77.1836 18.2148C77.6914 18.707 78.0898 19.3008 78.3789 19.9961C78.6758 20.6914 78.8672 21.4648 78.9531 22.3164H76.1406C76.0938 21.8086 75.9961 21.3516 75.8477 20.9453C75.707 20.5312 75.5117 20.1797 75.2617 19.8906C75.0039 19.6016 74.6875 19.3828 74.3125 19.2344C73.9375 19.0781 73.4883 19 72.9648 19C72.5977 19 72.2656 19.0508 71.9688 19.1523C71.6797 19.2539 71.4219 19.3984 71.1953 19.5859C70.8828 19.8125 70.6211 20.1094 70.4102 20.4766C70.207 20.8359 70.0391 21.2383 69.9062 21.6836C69.8047 22.0742 69.7266 22.4922 69.6719 22.9375C69.625 23.375 69.6016 23.8242 69.6016 24.2852V26.6406C69.6016 27.2109 69.6328 27.7461 69.6953 28.2461C69.7656 28.7461 69.8711 29.2031 70.0117 29.6172C70.1211 29.9609 70.2578 30.2734 70.4219 30.5547C70.5938 30.8359 70.7969 31.0781 71.0312 31.2812C71.2734 31.5 71.5508 31.668 71.8633 31.7852C72.1836 31.8945 72.5469 31.9492 72.9531 31.9492C73.4375 31.9492 73.8672 31.8789 74.2422 31.7383C74.6172 31.5977 74.9375 31.3906 75.2031 31.1172C75.4609 30.8516 75.668 30.5195 75.8242 30.1211C75.9805 29.7227 76.082 29.2656 76.1289 28.75H78.9531ZM90.0156 34C89.9297 33.8438 89.8594 33.6562 89.8047 33.4375C89.7578 33.2109 89.7148 32.9766 89.6758 32.7344C89.4805 32.9375 89.2578 33.1328 89.0078 33.3203C88.7656 33.5 88.4922 33.6562 88.1875 33.7891C87.8828 33.9297 87.5547 34.0391 87.2031 34.1172C86.8516 34.1953 86.4727 34.2344 86.0664 34.2344C85.4102 34.2344 84.8086 34.1406 84.2617 33.9531C83.7227 33.7578 83.2617 33.4922 82.8789 33.1562C82.4883 32.8281 82.1836 32.4336 81.9648 31.9727C81.7539 31.5039 81.6484 31 81.6484 30.4609C81.6484 29.7656 81.7852 29.1523 82.0586 28.6211C82.3398 28.082 82.7461 27.6367 83.2773 27.2852C83.7695 26.957 84.375 26.707 85.0938 26.5352C85.8203 26.3633 86.6406 26.2773 87.5547 26.2773H89.5938V25.4219C89.5938 25.0938 89.5352 24.7969 89.418 24.5312C89.3086 24.2656 89.1484 24.0352 88.9375 23.8398C88.7109 23.6445 88.4336 23.4961 88.1055 23.3945C87.7852 23.2852 87.4141 23.2305 86.9922 23.2305C86.6094 23.2305 86.2734 23.2773 85.9844 23.3711C85.7031 23.4648 85.4688 23.5938 85.2812 23.7578C85.0938 23.9062 84.9531 24.0898 84.8594 24.3086C84.7734 24.5195 84.7305 24.7461 84.7305 24.9883H81.918C81.9258 24.4805 82.0469 23.9922 82.2812 23.5234C82.5156 23.0547 82.8594 22.6406 83.3125 22.2812C83.75 21.9141 84.2891 21.625 84.9297 21.4141C85.5781 21.1953 86.3164 21.0859 87.1445 21.0859C87.8867 21.0859 88.5781 21.1797 89.2188 21.3672C89.8672 21.5469 90.4258 21.8164 90.8945 22.1758C91.3633 22.5352 91.7305 22.9922 91.9961 23.5469C92.2617 24.0938 92.3945 24.7266 92.3945 25.4453V31.082C92.3945 31.6523 92.4336 32.168 92.5117 32.6289C92.5977 33.082 92.7188 33.4727 92.875 33.8008V34H90.0156ZM86.6055 31.9844C86.9727 31.9844 87.3125 31.9375 87.625 31.8438C87.9453 31.75 88.2344 31.6289 88.4922 31.4805C88.75 31.332 88.9727 31.1641 89.1602 30.9766C89.3477 30.7891 89.4922 30.5938 89.5938 30.3906V28.0469H87.7891C87.1797 28.0469 86.6523 28.1055 86.207 28.2227C85.7617 28.332 85.4062 28.4922 85.1406 28.7031C84.9062 28.8828 84.7305 29.0977 84.6133 29.3477C84.5039 29.5977 84.4492 29.8789 84.4492 30.1914C84.4492 30.4492 84.4961 30.6914 84.5898 30.918C84.6836 31.1367 84.8203 31.3242 85 31.4805C85.1797 31.6367 85.4023 31.7617 85.668 31.8555C85.9336 31.9414 86.2461 31.9844 86.6055 31.9844ZM105.098 21.0859C105.551 21.0859 105.988 21.1172 106.41 21.1797C106.84 21.2422 107.176 21.3164 107.418 21.4023L107.02 24.168C106.59 24.0742 106.164 24.0039 105.742 23.957C105.328 23.9102 104.914 23.8867 104.5 23.8867C104.031 23.8867 103.609 23.9336 103.234 24.0273C102.859 24.1211 102.527 24.2656 102.238 24.4609C101.926 24.6484 101.66 24.8867 101.441 25.1758C101.223 25.4648 101.039 25.7969 100.891 26.1719V34H98.0898V21.3203H100.715L100.832 23.0781L100.844 23.3711C101.359 22.6602 101.977 22.1016 102.695 21.6953C103.422 21.2891 104.223 21.0859 105.098 21.0859ZM119.512 21.0859C119.965 21.0859 120.402 21.1172 120.824 21.1797C121.254 21.2422 121.59 21.3164 121.832 21.4023L121.434 24.168C121.004 24.0742 120.578 24.0039 120.156 23.957C119.742 23.9102 119.328 23.8867 118.914 23.8867C118.445 23.8867 118.023 23.9336 117.648 24.0273C117.273 24.1211 116.941 24.2656 116.652 24.4609C116.34 24.6484 116.074 24.8867 115.855 25.1758C115.637 25.4648 115.453 25.7969 115.305 26.1719V34H112.504V21.3203H115.129L115.246 23.0781L115.258 23.3711C115.773 22.6602 116.391 22.1016 117.109 21.6953C117.836 21.2891 118.637 21.0859 119.512 21.0859ZM125.805 21.3203H132.531V31.6797H136.258V34H125.805V31.6797H129.707V23.6523H125.805V21.3203ZM129.449 18.0391C129.449 17.8125 129.488 17.6055 129.566 17.418C129.645 17.2227 129.758 17.0547 129.906 16.9141C130.047 16.7812 130.215 16.6797 130.41 16.6094C130.613 16.5312 130.84 16.4922 131.09 16.4922C131.512 16.4922 131.852 16.6016 132.109 16.8203C132.375 17.0312 132.527 17.3047 132.566 17.6406C132.621 17.9844 132.562 18.2852 132.391 18.543C132.219 18.793 131.969 18.9609 131.641 19.0469C131.477 19.1953 131.281 19.293 131.055 19.3398C130.828 19.3867 130.578 19.3672 130.305 19.2812C130.023 19.1953 129.809 19.043 129.66 18.8242C129.52 18.5977 129.449 18.3359 129.449 18.0391ZM139.574 34V21.3203H142.105L142.281 23.125C142.453 22.8828 142.641 22.6602 142.844 22.457C143.055 22.2461 143.277 22.0586 143.512 21.8945C143.887 21.6367 144.297 21.4375 144.742 21.2969C145.188 21.1562 145.656 21.0859 146.148 21.0859C146.797 21.0859 147.391 21.1797 147.93 21.3672C148.469 21.5547 148.93 21.8516 149.312 22.2578C149.695 22.6641 149.992 23.1836 150.203 23.8164C150.414 24.4414 150.52 25.1992 150.52 26.0898V34H147.719V26.1367C147.719 25.6133 147.66 25.1758 147.543 24.8242C147.426 24.4727 147.254 24.1914 147.027 23.9805C146.801 23.7695 146.527 23.6211 146.207 23.5352C145.887 23.4414 145.52 23.3945 145.105 23.3945C144.762 23.3945 144.441 23.4414 144.145 23.5352C143.848 23.6211 143.578 23.7461 143.336 23.9102C143.148 24.0352 142.973 24.1875 142.809 24.3672C142.645 24.5469 142.5 24.7422 142.375 24.9531V34H139.574ZM156.789 23.125C156.953 22.875 157.137 22.6445 157.34 22.4336C157.543 22.2227 157.758 22.0391 157.984 21.8828C158.336 21.625 158.723 21.4297 159.145 21.2969C159.574 21.1562 160.027 21.0859 160.504 21.0859C161.168 21.0859 161.773 21.1836 162.32 21.3789C162.875 21.5742 163.348 21.8789 163.738 22.293C164.129 22.707 164.43 23.2383 164.641 23.8867C164.859 24.5273 164.969 25.2969 164.969 26.1953V34H162.168V26.1719C162.168 25.7031 162.109 25.293 161.992 24.9414C161.883 24.5898 161.719 24.3047 161.5 24.0859C161.273 23.8516 160.996 23.6797 160.668 23.5703C160.348 23.4531 159.977 23.3945 159.555 23.3945C159.227 23.3945 158.914 23.4336 158.617 23.5117C158.328 23.5898 158.062 23.7031 157.82 23.8516C157.617 23.9688 157.426 24.1094 157.246 24.2734C157.074 24.4375 156.922 24.6211 156.789 24.8242V34H153.988V16H156.789V23.125ZM167.887 27.543C167.887 26.6211 168.02 25.7695 168.285 24.9883C168.551 24.1992 168.938 23.5156 169.445 22.9375C169.945 22.3594 170.559 21.9062 171.285 21.5781C172.012 21.25 172.84 21.0859 173.77 21.0859C174.699 21.0859 175.527 21.25 176.254 21.5781C176.988 21.9062 177.609 22.3594 178.117 22.9375C178.617 23.5156 179 24.1992 179.266 24.9883C179.531 25.7695 179.664 26.6211 179.664 27.543V27.7891C179.664 28.7188 179.531 29.5742 179.266 30.3555C179 31.1367 178.617 31.8164 178.117 32.3945C177.617 32.9727 177 33.4258 176.266 33.7539C175.539 34.082 174.715 34.2461 173.793 34.2461C172.863 34.2461 172.031 34.082 171.297 33.7539C170.562 33.4258 169.945 32.9727 169.445 32.3945C168.938 31.8164 168.551 31.1367 168.285 30.3555C168.02 29.5742 167.887 28.7188 167.887 27.7891V27.543ZM170.688 27.7891C170.688 28.3594 170.746 28.8984 170.863 29.4062C170.988 29.9141 171.18 30.3594 171.438 30.7422C171.688 31.125 172.008 31.4297 172.398 31.6562C172.789 31.875 173.254 31.9844 173.793 31.9844C174.316 31.9844 174.773 31.875 175.164 31.6562C175.555 31.4297 175.875 31.125 176.125 30.7422C176.375 30.3594 176.559 29.9141 176.676 29.4062C176.801 28.8984 176.863 28.3594 176.863 27.7891V27.543C176.863 26.9883 176.801 26.457 176.676 25.9492C176.551 25.4414 176.367 24.9961 176.125 24.6133C175.867 24.2305 175.543 23.9258 175.152 23.6992C174.77 23.4727 174.309 23.3594 173.77 23.3594C173.238 23.3594 172.777 23.4727 172.387 23.6992C172.004 23.9258 171.688 24.2305 171.438 24.6133C171.18 24.9961 170.988 25.4414 170.863 25.9492C170.746 26.457 170.688 26.9883 170.688 27.543V27.7891Z" fill="black"/>
</svg>
